<?xml version="1.0" encoding="utf-8"?>
<!-- Generator: Adobe Illustrator 22.0.1, SVG Export Plug-In . SVG Version: 6.00 Build 0)  -->
<svg version="1.1" id="Laag_1" xmlns="http://www.w3.org/2000/svg" xmlns:xlink="http://www.w3.org/1999/xlink" x="0px" y="0px"
	 viewBox="0 0 351.8 255.7" style="enable-background:new 0 0 351.8 255.7;" xml:space="preserve">
<style type="text/css">
	.st0{fill:#ffffff;}
	.st1{fill:#FCBE00;}
	.st2{fill:#F6A117;}
</style>
<g>
	<path class="st0" d="M4.5,120.1h23v35.6l17.4-35.6h22.8l-19.2,33.6l22.2,65.1H44.9l-11.2-39.3l-6.2,10.9v28.5h-23V120.1z"/>
	<path class="st0" d="M81.1,120.1h35.5c8,0,14.5,2.1,19.5,6.2c5,4.2,7.5,10.1,7.5,17.7c0,6.3-1.8,11.6-5.3,16
		c-3.6,4.4-8.9,7.9-16,10.4c8.9,1.4,14.4,7.1,16.6,17l6.7,31.4h-25.2l-3.7-27.3c-0.7-4.6-1.8-8-3.3-10.1s-3.9-3.2-7-3.2h-2.1v40.6
		h-23V120.1z M104.1,139.3v21.2h5c3.6,0,6.3-1.1,8.2-3.2c1.9-2.1,2.8-4.8,2.8-8.1c0-3.3-0.8-5.8-2.5-7.4c-1.7-1.7-4.2-2.5-7.5-2.5
		H104.1z"/>
	<path class="st0" d="M161.8,143l23.2,13.6v62.2h-23.2V143z"/>
	<path class="st1" d="M185,147.4l-23.2-13.6v-13.7H185V147.4z"/>
	<path class="st0" d="M206.6,120.1h56.3V140h-33.3v18.2h31v19.3h-31v21.2h33.3v20.2h-56.3V120.1z"/>
	<path class="st0" d="M281,120.1h23v35.6l17.4-35.6h22.8L325,153.7l22.2,65.1h-25.8l-11.2-39.3l-6.2,10.9v28.5h-23V120.1z"/>
</g>
<g>
	<path class="st0" d="M9.7,237.1c0.3-0.8,0.7-1.5,1.2-1.9c0.5-0.4,1-0.6,1.7-0.6c0.4,0,0.9,0.1,1.3,0.4v5.2c-0.6-0.3-1.1-0.4-1.5-0.4
		c-0.7,0-1.3,0.3-1.7,0.9c-0.5,0.6-0.7,1.3-0.7,2.2v8.6H4.4v-16.4h4.7L9.7,237.1z"/>
	<path class="st0" d="M30.9,249.9c-2.1,1.2-4.1,1.8-5.9,1.8c-2.4,0-4.3-0.8-5.8-2.4c-1.5-1.6-2.2-3.6-2.2-6.1c0-2.4,0.7-4.5,2.1-6.1
		c1.4-1.7,3.3-2.5,5.6-2.5c2.1,0,3.7,0.7,5,2.2s1.9,3.4,1.9,5.8v1.4h-8.8c0.3,1.1,0.7,1.9,1.3,2.5c0.6,0.6,1.4,0.8,2.4,0.8
		c0.7,0,1.4-0.2,2.1-0.5c0.6-0.3,1.4-0.9,2.5-1.8V249.9z M26.7,240.9v-0.6c0-0.7-0.2-1.4-0.6-1.9c-0.4-0.5-0.9-0.8-1.5-0.8
		c-0.7,0-1.2,0.3-1.6,0.8c-0.4,0.5-0.6,1.4-0.6,2.4H26.7z"/>
	<path class="st0" d="M41.1,236.6c0.5-0.7,1-1.2,1.6-1.6c0.6-0.3,1.3-0.5,2.1-0.5c1.3,0,2.4,0.5,3.3,1.4s1.3,2.1,1.3,3.5v11.8h-5.5v-10.7
		c0-0.9-0.3-1.4-1-1.4c-0.5,0-0.9,0.3-1.2,0.8c-0.3,0.5-0.4,1.2-0.4,2.1v9.2h-5.4v-16.4h4.7L41.1,236.6z"/>
	<path class="st0" d="M61.2,234.5c2.3,0,4.1,0.7,5.6,2.2s2.2,3.6,2.2,6.3c0,2.5-0.7,4.6-2.1,6.2c-1.4,1.6-3.3,2.4-5.7,2.4s-4.2-0.8-5.6-2.4
		s-2-3.6-2-6.1c0-2.6,0.7-4.7,2.1-6.3C57.1,235.3,58.9,234.5,61.2,234.5z M61.2,238.7c-0.7,0-1.2,0.4-1.5,1.1
		c-0.3,0.7-0.5,1.8-0.5,3.3c0,1.4,0.2,2.5,0.5,3.2s0.8,1.1,1.5,1.1c0.7,0,1.2-0.4,1.5-1.1c0.3-0.7,0.5-1.8,0.5-3.2
		c0-1.5-0.2-2.6-0.5-3.3C62.4,239.1,61.9,238.7,61.2,238.7z"/>
	<path class="st0" d="M71.3,234.9h5.8l1.6,10.6l1.7-10.6h5.6l-4.7,16.4h-5.4L71.3,234.9z"/>
	<path class="st0" d="M90.5,235.9c1.9-0.9,3.6-1.3,5.3-1.3c1.2,0,2.3,0.2,3.2,0.7c0.9,0.4,1.7,1.1,2.3,2.1c0.6,1,0.9,2.2,0.9,3.7v5.5
		c0,1.6,0.3,3.2,1,4.8h-5.5c-0.2-0.5-0.4-1-0.5-1.6c-0.5,0.6-1.1,1.1-1.7,1.4c-0.6,0.3-1.2,0.5-1.9,0.5c-1.3,0-2.4-0.5-3.4-1.5
		c-1-1-1.5-2.3-1.5-3.7c0-3.3,2.8-5.3,8.5-6c-0.1-0.6-0.4-1-0.9-1.3c-0.5-0.3-1.2-0.4-2-0.4c-1.3,0-2.6,0.5-3.9,1.5V235.9z
		 M97.3,243.2c-2.3,0.2-3.4,1.1-3.4,2.6c0,0.6,0.2,1,0.5,1.4c0.3,0.4,0.8,0.6,1.2,0.6c0.6,0,1-0.2,1.3-0.7c0.3-0.5,0.4-1.1,0.4-1.8
		V243.2z"/>
	<path class="st0" d="M108.1,230h4.5v4.9h2.7v4h-2.5v6.7c0,1,0.4,1.5,1.2,1.5c0.4,0,0.8-0.2,1.2-0.5v4.4c-1,0.4-2,0.5-3.1,0.5
		c-1.7,0-2.9-0.4-3.7-1.2s-1.2-2.1-1.2-3.8v-7.8h-2v-4h2.3L108.1,230z"/>
	<path class="st0" d="M122.6,226.9c0.7,0,1.4,0.3,2,0.8c0.6,0.5,0.9,1.2,0.9,2.1c0,0.8-0.3,1.5-0.9,2.1c-0.6,0.6-1.3,0.8-2.1,0.8
		c-0.8,0-1.5-0.3-2.1-0.9c-0.6-0.6-0.9-1.3-0.9-2.1c0-0.8,0.3-1.5,0.9-2C121.1,227.2,121.8,226.9,122.6,226.9z M119.8,234.9h5.5
		v16.4h-5.5V234.9z"/>
	<path class="st0" d="M143.5,249.9c-2.1,1.2-4.1,1.8-5.9,1.8c-2.4,0-4.3-0.8-5.8-2.4c-1.5-1.6-2.2-3.6-2.2-6.1c0-2.4,0.7-4.5,2.1-6.1
		c1.4-1.7,3.3-2.5,5.6-2.5c2.1,0,3.7,0.7,5,2.2s1.9,3.4,1.9,5.8v1.4h-8.8c0.3,1.1,0.7,1.9,1.3,2.5c0.6,0.6,1.4,0.8,2.4,0.8
		c0.7,0,1.4-0.2,2.1-0.5c0.6-0.3,1.4-0.9,2.5-1.8V249.9z M139.4,240.9v-0.6c0-0.7-0.2-1.4-0.6-1.9c-0.4-0.5-0.9-0.8-1.5-0.8
		c-0.7,0-1.2,0.3-1.6,0.8c-0.4,0.5-0.6,1.4-0.6,2.4H139.4z"/>
	<path class="st1" d="M162.8,236.7c-0.6-1.7-0.9-3.1-0.9-4.3c0-1.4,0.5-2.7,1.6-3.8c1.1-1.1,2.6-1.7,4.5-1.7c0.7,0,1.7,0.1,3,0.4
		v4.2c-0.7-0.3-1.2-0.5-1.7-0.5c-0.6,0-1,0.2-1.4,0.5c-0.4,0.3-0.5,0.8-0.5,1.3c0,0.6,0.2,1.2,0.5,1.9l3.2,6.2c0-0.3,0-0.6,0-0.7
		l0-2.1v-1.4h4.8v0.4c0,1.4-0.2,2.9-0.6,4.6c-0.4,1.7-1.1,3.1-1.9,4.2l2.6,5.4h-5.6l-0.7-1.4c-1.3,1.2-2.8,1.8-4.3,1.8
		c-1.9,0-3.5-0.7-4.8-2.1c-1.3-1.4-2-3.1-2-5.2C158.3,241.6,159.8,239,162.8,236.7z M164.6,240.7c-0.6,1-0.9,2-0.9,2.9
		c0,0.9,0.3,1.7,0.8,2.4c0.5,0.6,1.2,1,1.9,1c0.3,0,0.7-0.1,1-0.2L164.6,240.7z"/>
	<path class="st0" d="M197.4,234.5c2.3,0,4.1,0.7,5.6,2.2s2.2,3.6,2.2,6.3c0,2.5-0.7,4.6-2.1,6.2c-1.4,1.6-3.3,2.4-5.7,2.4s-4.2-0.8-5.6-2.4
		c-1.3-1.6-2-3.6-2-6.1c0-2.6,0.7-4.7,2.1-6.3C193.3,235.3,195.1,234.5,197.4,234.5z M197.4,238.7c-0.7,0-1.2,0.4-1.5,1.1
		c-0.3,0.7-0.5,1.8-0.5,3.3c0,1.4,0.2,2.5,0.5,3.2c0.3,0.7,0.8,1.1,1.5,1.1c0.7,0,1.2-0.4,1.5-1.1c0.3-0.7,0.5-1.8,0.5-3.2
		c0-1.5-0.2-2.6-0.5-3.3C198.6,239.1,198.1,238.7,197.4,238.7z"/>
	<path class="st0" d="M214.7,236.6c0.5-0.7,1-1.2,1.6-1.6c0.6-0.3,1.3-0.5,2.1-0.5c1.3,0,2.4,0.5,3.3,1.4c0.9,0.9,1.3,2.1,1.3,3.5v11.8h-5.5
		v-10.7c0-0.9-0.3-1.4-1-1.4c-0.5,0-0.9,0.3-1.2,0.8s-0.4,1.2-0.4,2.1v9.2h-5.4v-16.4h4.7L214.7,236.6z"/>
	<path class="st0" d="M236.3,227.3h5.5v24H237l-0.5-1.9c-0.5,0.8-1.1,1.3-1.7,1.7c-0.6,0.4-1.3,0.6-2,0.6c-1.7,0-3-0.9-4.1-2.6
		c-1-1.7-1.6-3.7-1.6-5.9c0-2.3,0.6-4.4,1.7-6.1c1.1-1.7,2.5-2.6,4.3-2.6c0.5,0,1.1,0.1,1.6,0.3c0.5,0.2,1.1,0.6,1.6,1V227.3z
		 M236.3,240c-0.2-0.3-0.5-0.6-0.7-0.7c-0.3-0.2-0.5-0.2-0.8-0.2c-0.6,0-1.1,0.4-1.5,1.1c-0.4,0.7-0.6,1.7-0.6,2.9
		c0,1.1,0.2,2.1,0.5,2.8c0.4,0.7,0.8,1.1,1.4,1.1c0.5,0,0.9-0.3,1.2-0.8c0.3-0.5,0.4-1.2,0.4-1.9V240z"/>
	<path class="st0" d="M259.8,249.9c-2.1,1.2-4.1,1.8-5.9,1.8c-2.4,0-4.3-0.8-5.8-2.4c-1.5-1.6-2.2-3.6-2.2-6.1c0-2.4,0.7-4.5,2.1-6.1
		s3.3-2.5,5.6-2.5c2.1,0,3.7,0.7,5,2.2c1.2,1.4,1.9,3.4,1.9,5.8v1.4h-8.8c0.3,1.1,0.7,1.9,1.3,2.5c0.6,0.6,1.4,0.8,2.4,0.8
		c0.7,0,1.4-0.2,2.1-0.5c0.6-0.3,1.4-0.9,2.5-1.8V249.9z M255.7,240.9v-0.6c0-0.7-0.2-1.4-0.6-1.9c-0.4-0.5-0.9-0.8-1.5-0.8
		c-0.7,0-1.2,0.3-1.6,0.8s-0.6,1.4-0.6,2.4H255.7z"/>
	<path class="st0" d="M270,237.1c0.3-0.8,0.7-1.5,1.2-1.9c0.5-0.4,1-0.6,1.7-0.6c0.4,0,0.9,0.1,1.3,0.4v5.2c-0.6-0.3-1.1-0.4-1.5-0.4
		c-0.7,0-1.3,0.3-1.7,0.9c-0.5,0.6-0.7,1.3-0.7,2.2v8.6h-5.5v-16.4h4.7L270,237.1z"/>
	<path class="st0" d="M277.8,227.3h5.4v9c0.5-0.6,1.1-1.1,1.7-1.4c0.6-0.3,1.2-0.4,1.9-0.4c1.3,0,2.4,0.5,3.2,1.5c0.8,1,1.2,2.2,1.2,3.7v11.6
		h-5.5v-10.8c0-0.9-0.4-1.3-1.1-1.3c-0.5,0-0.9,0.2-1.1,0.7c-0.3,0.5-0.4,1.2-0.4,2.2v9.2h-5.4V227.3z"/>
	<path class="st0" d="M303.1,234.5c2.3,0,4.1,0.7,5.6,2.2s2.2,3.6,2.2,6.3c0,2.5-0.7,4.6-2.1,6.2c-1.4,1.6-3.3,2.4-5.7,2.4s-4.2-0.8-5.6-2.4
		c-1.3-1.6-2-3.6-2-6.1c0-2.6,0.7-4.7,2.1-6.3C299,235.3,300.8,234.5,303.1,234.5z M303.1,238.7c-0.7,0-1.2,0.4-1.5,1.1
		c-0.3,0.7-0.5,1.8-0.5,3.3c0,1.4,0.2,2.5,0.5,3.2c0.3,0.7,0.8,1.1,1.5,1.1c0.7,0,1.2-0.4,1.5-1.1c0.3-0.7,0.5-1.8,0.5-3.2
		c0-1.5-0.2-2.6-0.5-3.3C304.3,239.1,303.8,238.7,303.1,238.7z"/>
	<path class="st0" d="M315.1,234.9h5.4v10.2c0,0.6,0.1,1.1,0.3,1.4c0.2,0.3,0.4,0.5,0.8,0.5c0.4,0,0.7-0.2,1-0.5s0.4-0.8,0.4-1.3v-10.2h5.5v16.4
		h-4.7l-0.5-1.6c-0.5,0.7-1.1,1.2-1.7,1.5s-1.3,0.5-2,0.5c-1.3,0-2.4-0.5-3.2-1.6c-0.8-1.1-1.3-2.4-1.3-4V234.9z"/>
	<path class="st0" d="M342,227.3h5.5v24h-4.8l-0.5-1.9c-0.5,0.8-1.1,1.3-1.7,1.7c-0.6,0.4-1.3,0.6-2,0.6c-1.7,0-3-0.9-4.1-2.6
		c-1-1.7-1.6-3.7-1.6-5.9c0-2.3,0.6-4.4,1.7-6.1c1.1-1.7,2.5-2.6,4.3-2.6c0.5,0,1.1,0.1,1.6,0.3c0.5,0.2,1.1,0.6,1.6,1V227.3z
		 M342,240c-0.2-0.3-0.5-0.6-0.7-0.7c-0.3-0.2-0.5-0.2-0.8-0.2c-0.6,0-1.1,0.4-1.5,1.1c-0.4,0.7-0.6,1.7-0.6,2.9
		c0,1.1,0.2,2.1,0.5,2.8c0.4,0.7,0.8,1.1,1.4,1.1c0.5,0,0.9-0.3,1.2-0.8c0.3-0.5,0.4-1.2,0.4-1.9V240z"/>
</g>
<polygon class="st2" points="69.1,108.4 5.1,108.4 143.3,4.8 207.3,4.8 "/>
<polygon class="st1" points="299.3,73.3 299.3,43.3 264.9,24.1 264.9,47.5 207.9,4.8 144,4.8 282.1,108.4 346.1,108.4 "/>
</svg>
